<?xml version="1.0" encoding="UTF-8" standalone="no"?>
<!-- Created with Inkscape (http://www.inkscape.org/) -->

<svg
   xmlns:dc="http://purl.org/dc/elements/1.1/"
   xmlns:cc="http://creativecommons.org/ns#"
   xmlns:rdf="http://www.w3.org/1999/02/22-rdf-syntax-ns#"
   xmlns:svg="http://www.w3.org/2000/svg"
   xmlns="http://www.w3.org/2000/svg"
   xmlns:xlink="http://www.w3.org/1999/xlink"
   xmlns:sodipodi="http://sodipodi.sourceforge.net/DTD/sodipodi-0.dtd"
   xmlns:inkscape="http://www.inkscape.org/namespaces/inkscape"
   width="199.136mm"
   height="148.25134mm"
   viewBox="0 0 199.136 148.25134"
   version="1.1"
   id="svg8"
   sodipodi:docname="MB_cumsum_compare_manual.svg"
   inkscape:version="0.92.5 (2060ec1f9f, 2020-04-08)"
   inkscape:export-filename="/home/kdm/projects/total_mass_balance/fig/mb_cumsum_compare_manual.png"
   inkscape:export-xdpi="149.923"
   inkscape:export-ydpi="149.923">
  <defs
     id="defs2">
    <marker
       inkscape:stockid="TriangleOutM"
       orient="auto"
       refY="0.0"
       refX="0.0"
       id="TriangleOutM"
       style="overflow:visible"
       inkscape:isstock="true">
      <path
         id="path1079"
         d="M 5.77,0.0 L -2.88,5.0 L -2.88,-5.0 L 5.77,0.0 z "
         style="fill-rule:evenodd;stroke:#00ffff;stroke-width:1pt;stroke-opacity:1;fill:#00ffff;fill-opacity:1"
         transform="scale(0.4)" />
    </marker>
    <marker
       inkscape:stockid="TriangleOutL"
       orient="auto"
       refY="0.0"
       refX="0.0"
       id="TriangleOutL"
       style="overflow:visible"
       inkscape:isstock="true">
      <path
         id="path1076"
         d="M 5.77,0.0 L -2.88,5.0 L -2.88,-5.0 L 5.77,0.0 z "
         style="fill-rule:evenodd;stroke:#00ffff;stroke-width:1pt;stroke-opacity:1;fill:#00ffff;fill-opacity:1"
         transform="scale(0.8)" />
    </marker>
    <marker
       inkscape:stockid="Arrow1Send"
       orient="auto"
       refY="0.0"
       refX="0.0"
       id="Arrow1Send"
       style="overflow:visible;"
       inkscape:isstock="true">
      <path
         id="path949"
         d="M 0.0,0.0 L 5.0,-5.0 L -12.5,0.0 L 5.0,5.0 L 0.0,0.0 z "
         style="fill-rule:evenodd;stroke:#000000;stroke-width:1pt;stroke-opacity:1;fill:#000000;fill-opacity:1"
         transform="scale(0.2) rotate(180) translate(6,0)" />
    </marker>
    <marker
       inkscape:stockid="Arrow2Mstart"
       orient="auto"
       refY="0.0"
       refX="0.0"
       id="Arrow2Mstart"
       style="overflow:visible"
       inkscape:isstock="true">
      <path
         id="path958"
         style="fill-rule:evenodd;stroke-width:0.62500000;stroke-linejoin:round"
         d="M 8.7185878,4.0337352 L -2.2072895,0.016013256 L 8.7185884,-4.0017078 C 6.9730900,-1.6296469 6.9831476,1.6157441 8.7185878,4.0337352 z "
         transform="scale(0.6) translate(0,0)" />
    </marker>
    <path
       d="m 44.390625,34.1875 q 3.171875,-1.078125 6.171875,-4.59375 3,-3.515625 6.03125,-9.671875 L 66.609375,0 H 56 l -9.3125,18.703125 q -3.625,7.328125 -7.015625,9.71875 -3.390625,2.390625 -9.25,2.390625 h -10.75 V 0 H 9.8125 v 72.90625 h 22.265625 q 12.5,0 18.65625,-5.234375 6.15625,-5.21875 6.15625,-15.765625 0,-6.890625 -3.203125,-11.4375 -3.203125,-4.53125 -9.296875,-6.28125 z m -24.71875,30.609375 v -25.875 h 12.40625 q 7.125,0 10.765625,3.296875 3.640625,3.296875 3.640625,9.6875 0,6.390625 -3.640625,9.640625 -3.640625,3.25 -10.765625,3.25 z"
       id="DejaVuSans-82"
       inkscape:connector-curvature="0"
       style="stroke-linecap:butt;stroke-linejoin:round" />
    <path
       d="M 34.1875,63.1875 20.796875,26.90625 h 26.8125 z m -5.578125,9.71875 h 11.1875 L 67.578125,0 h -10.25 L 50.6875,18.703125 H 17.828125 L 11.1875,0 H 0.78125 Z"
       id="DejaVuSans-65"
       inkscape:connector-curvature="0"
       style="stroke-linecap:butt;stroke-linejoin:round" />
    <path
       d="M 64.40625,67.28125 V 56.890625 q -4.984375,4.640625 -10.625,6.921875 -5.640625,2.296875 -11.984375,2.296875 -12.5,0 -19.140625,-7.640625 -6.640625,-7.640625 -6.640625,-22.09375 0,-14.40625 6.640625,-22.046875 Q 29.296875,6.6875 41.796875,6.6875 q 6.34375,0 11.984375,2.296875 5.640625,2.296875 10.625,6.9375 V 5.609375 Q 59.234375,2.09375 53.4375,0.328125 q -5.78125,-1.75 -12.21875,-1.75 -16.5625,0 -26.09375,10.125 Q 5.609375,18.84375 5.609375,36.375 q 0,17.578125 9.515625,27.703125 9.53125,10.140625 26.09375,10.140625 6.53125,0 12.3125,-1.734375 5.796875,-1.734375 10.875,-5.203125 z"
       id="DejaVuSans-67"
       inkscape:connector-curvature="0"
       style="stroke-linecap:butt;stroke-linejoin:round" />
    <path
       d="m 9.8125,72.90625 h 46.09375 v -8.3125 H 19.671875 V 43.015625 h 34.71875 V 34.71875 H 19.671875 V 8.296875 H 56.78125 V 0 H 9.8125 Z"
       id="DejaVuSans-69"
       inkscape:connector-curvature="0"
       style="stroke-linecap:butt;stroke-linejoin:round" />
    <path
       d="m 53.515625,70.515625 v -9.625 q -5.609375,2.6875 -10.59375,4 -4.984375,1.328125 -9.625,1.328125 -8.046875,0 -12.421875,-3.125 -4.375,-3.125 -4.375,-8.890625 0,-4.84375 2.90625,-7.3125 2.90625,-2.453125 11.015625,-3.96875 L 36.375,41.703125 Q 47.40625,39.59375 52.65625,34.296875 57.90625,29 57.90625,20.125 q 0,-10.609375 -7.109375,-16.078125 -7.09375,-5.46875 -20.8125,-5.46875 -5.171875,0 -11.015625,1.171875 Q 13.140625,0.921875 6.890625,3.21875 V 13.375 q 6,-3.359375 11.765625,-5.078125 5.765625,-1.703125 11.328125,-1.703125 8.4375,0 13.03125,3.3125 4.59375,3.328125 4.59375,9.484375 0,5.359375 -3.296875,8.390625 Q 41.015625,30.8125 33.5,32.328125 L 27.484375,33.5 q -11.03125,2.1875 -15.96875,6.875 -4.921875,4.6875 -4.921875,13.046875 0,9.671875 6.8125,15.234375 6.8125,5.5625 18.765625,5.5625 5.140625,0 10.453125,-0.9375 5.328125,-0.921875 10.890625,-2.765625 z"
       id="DejaVuSans-83"
       inkscape:connector-curvature="0"
       style="stroke-linecap:butt;stroke-linejoin:round" />
    <path
       d="m 9.8125,72.90625 h 9.859375 V 0 H 9.8125 Z"
       id="DejaVuSans-73"
       inkscape:connector-curvature="0"
       style="stroke-linecap:butt;stroke-linejoin:round" />
    <path
       d="M 19.671875,34.8125 V 8.109375 H 35.5 q 7.953125,0 11.78125,3.296875 3.84375,3.296875 3.84375,10.078125 0,6.84375 -3.84375,10.078125 -3.828125,3.25 -11.78125,3.25 z m 0,29.984375 V 42.828125 H 34.28125 q 7.21875,0 10.75,2.703125 3.546875,2.71875 3.546875,8.28125 0,5.515625 -3.546875,8.25 -3.53125,2.734375 -10.75,2.734375 z M 9.8125,72.90625 h 25.203125 q 11.28125,0 17.375,-4.6875 Q 58.5,63.53125 58.5,54.890625 58.5,48.1875 55.375,44.234375 52.25,40.28125 46.1875,39.3125 53.46875,37.75 57.5,32.78125 q 4.03125,-4.953125 4.03125,-12.375 0,-9.765625 -6.640625,-15.09375 Q 48.25,0 35.984375,0 H 9.8125 Z"
       id="DejaVuSans-66"
       inkscape:connector-curvature="0"
       style="stroke-linecap:butt;stroke-linejoin:round" />
    <clipPath
       id="pc813c0659b">
      <rect
         height="355.79343"
         width="485.42624"
         x="7.1999998"
         y="11.759063"
         id="rect750" />
    </clipPath>
    <clipPath
       id="pc813c0659b-5">
      <rect
         height="355.79343"
         width="485.42624"
         x="7.1999998"
         y="11.759063"
         id="rect750-5" />
    </clipPath>
    <clipPath
       id="pc813c0659b-2">
      <rect
         height="355.79343"
         width="485.42624"
         x="7.1999998"
         y="11.759063"
         id="rect750-54" />
    </clipPath>
    <clipPath
       id="pc813c0659b-5-7">
      <rect
         height="355.79343"
         width="485.42624"
         x="7.1999998"
         y="11.759063"
         id="rect750-5-4" />
    </clipPath>
    <clipPath
       id="pc813c0659b-2-3">
      <rect
         height="355.79343"
         width="485.42624"
         x="7.1999998"
         y="11.759063"
         id="rect750-54-1" />
    </clipPath>
    <clipPath
       id="pc813c0659b-2-6">
      <rect
         height="355.79343"
         width="485.42624"
         x="7.1999998"
         y="11.759063"
         id="rect750-54-3" />
    </clipPath>
    <clipPath
       id="pc813c0659b-2-6-9">
      <rect
         height="355.79343"
         width="485.42624"
         x="7.1999998"
         y="11.759063"
         id="rect750-54-3-6" />
    </clipPath>
    <marker
       inkscape:stockid="TriangleOutL"
       orient="auto"
       refY="0"
       refX="0"
       id="TriangleOutL-3"
       style="overflow:visible"
       inkscape:isstock="true">
      <path
         inkscape:connector-curvature="0"
         id="path1076-6"
         d="M 5.77,0 -2.88,5 V -5 Z"
         style="fill:#000000;fill-opacity:1;fill-rule:evenodd;stroke:#000000;stroke-width:1.00000003pt;stroke-opacity:1"
         transform="scale(0.8)" />
    </marker>
  </defs>
  <sodipodi:namedview
     id="base"
     pagecolor="#ffffff"
     bordercolor="#666666"
     borderopacity="1.0"
     inkscape:pageopacity="0.0"
     inkscape:pageshadow="2"
     inkscape:zoom="9.222312"
     inkscape:cx="110.99333"
     inkscape:cy="410.78238"
     inkscape:document-units="mm"
     inkscape:current-layer="layer1"
     showgrid="false"
     inkscape:window-width="1440"
     inkscape:window-height="2531"
     inkscape:window-x="0"
     inkscape:window-y="0"
     inkscape:window-maximized="1"
     showguides="true"
     inkscape:guide-bbox="true"
     fit-margin-top="0"
     fit-margin-left="0"
     fit-margin-right="0"
     fit-margin-bottom="0">
    <sodipodi:guide
       position="153.55688,146.36011"
       orientation="1,0"
       id="guide1513"
       inkscape:locked="false" />
  </sodipodi:namedview>
  <metadata
     id="metadata5">
    <rdf:RDF>
      <cc:Work
         rdf:about="">
        <dc:format>image/svg+xml</dc:format>
        <dc:type
           rdf:resource="http://purl.org/dc/dcmitype/StillImage" />
        <dc:title />
      </cc:Work>
    </rdf:RDF>
  </metadata>
  <g
     inkscape:label="Layer 1"
     inkscape:groupmode="layer"
     id="layer1"
     transform="translate(-2.8635483,-8.9398069)">
    <image
       sodipodi:absref="/home/kdm/projects/total_mass_balance/fig/MB_cumsum_compare.png"
       xlink:href="MB_cumsum_compare.png"
       y="8.9398069"
       x="2.8635483"
       id="image823"
       preserveAspectRatio="none"
       height="148.25134"
       width="199.136"
       inkscape:export-xdpi="149.923"
       inkscape:export-ydpi="149.923" />
    <rect
       style="opacity:1;fill:#ffffff;fill-opacity:1;stroke:none;stroke-width:1.07802618;stroke-miterlimit:10;stroke-dasharray:none;stroke-dashoffset:0;stroke-opacity:1"
       id="rect826"
       width="9.5040646"
       height="34.424694"
       x="135.33611"
       y="14.982152" />
    <g
       style="stroke-linecap:butt;stroke-linejoin:round"
       id="line2d_57"
       transform="matrix(0.35277777,0,0,0.35277777,-33.912206,8.9875709)" />
    <g
       style="stroke-linecap:butt;stroke-linejoin:round"
       id="line2d_59"
       transform="matrix(0.35277777,0,0,0.35277777,-33.912206,8.9875709)" />
    <g
       style="stroke-linecap:butt;stroke-linejoin:round"
       id="line2d_61"
       transform="matrix(0.35277777,0,0,0.35277777,-33.912206,8.9875709)" />
    <g
       style="stroke-linecap:butt;stroke-linejoin:round"
       id="line2d_63"
       transform="matrix(0.35277777,0,0,0.35277777,-33.912206,8.9875709)" />
    <g
       style="stroke-linecap:butt;stroke-linejoin:round"
       id="line2d_65"
       transform="matrix(0.35277777,0,0,0.35277777,-33.912206,8.9875709)" />
    <g
       style="stroke-linecap:butt;stroke-linejoin:round"
       id="line2d_67"
       transform="matrix(0.35277777,0,0,0.35277777,-33.912206,8.9875709)" />
    <g
       id="g957"
       transform="translate(-2.0659126,0.37067343)">
      <g
         transform="matrix(0.27046116,0,0,-0.35277777,28.496182,41.779575)"
         id="line2d_58-3-8-8-2"
         style="stroke:#e6cec6;stroke-width:9.27649689;stroke-linecap:butt;stroke-linejoin:round;stroke-miterlimit:4;stroke-dasharray:none;stroke-opacity:1">
        <path
           d="m 407.10937,45.090938 h 24"
           style="fill:none;stroke:#e6cec6;stroke-width:9.27649689;stroke-linecap:square;stroke-linejoin:round;stroke-miterlimit:4;stroke-dasharray:none;stroke-opacity:1"
           id="path653-3-6-8-2"
           inkscape:connector-curvature="0" />
      </g>
      <g
         transform="matrix(0.35294118,0,0,0.35277777,-6.0719481,3.7519253)"
         id="line2d_60-4"
         style="stroke-linecap:butt;stroke-linejoin:round">
        <path
           d="m 407.10937,62.704688 h 24"
           style="fill:none;stroke:#e31a1c;stroke-width:1.5;stroke-linecap:square;stroke-linejoin:round"
           id="path670-1"
           inkscape:connector-curvature="0" />
      </g>
    </g>
    <g
       id="g963"
       transform="translate(-0.02931047)">
      <g
         transform="matrix(0.27046074,0,0,-0.35277777,26.459756,31.805666)"
         id="line2d_58-3-8-8"
         style="stroke:#e5e5e5;stroke-width:9.27654934;stroke-linecap:square;stroke-linejoin:round;stroke-miterlimit:4;stroke-dasharray:none;stroke-opacity:1">
        <path
           d="m 407.10937,45.090938 h 24"
           style="fill:none;stroke:#e5e5e5;stroke-width:9.27654934;stroke-linecap:square;stroke-linejoin:round;stroke-miterlimit:4;stroke-dasharray:none;stroke-opacity:1"
           id="path653-3-6-8"
           inkscape:connector-curvature="0" />
      </g>
      <g
         transform="matrix(0.35294118,0,0,0.35277777,-8.1085489,0.08382554)"
         id="line2d_58-3-8"
         style="stroke:#000000;stroke-linecap:butt;stroke-linejoin:round;stroke-opacity:1">
        <path
           d="m 407.10937,45.090938 h 24"
           style="fill:none;stroke:#000000;stroke-width:1.5;stroke-linecap:square;stroke-linejoin:round;stroke-opacity:1"
           id="path653-3-6"
           inkscape:connector-curvature="0" />
      </g>
    </g>
    <g
       id="g971"
       transform="translate(0,-0.03462321)">
      <g
         transform="matrix(0.35294677,0,0,0.3527566,-8.1401513,5.1993321)"
         id="line2d_58-3"
         style="stroke-linecap:butt;stroke-linejoin:round">
        <path
           d="m 407.10937,45.090938 h 24"
           style="fill:none;stroke:#808080;stroke-width:1.5;stroke-linecap:square;stroke-linejoin:round"
           id="path653-3"
           inkscape:connector-curvature="0" />
      </g>
      <g
         transform="matrix(0.35294677,0,0,0.3527566,-8.1401513,6.6521808)"
         id="line2d_58-3-9"
         style="stroke:#959595;stroke-width:1.00042033;stroke-linecap:butt;stroke-linejoin:round;stroke-miterlimit:4;stroke-dasharray:2.0008407, 2.0008407;stroke-dashoffset:0;stroke-opacity:1">
        <path
           d="m 407.10937,45.090938 h 24"
           style="fill:none;stroke:#959595;stroke-width:1.00042033;stroke-linecap:square;stroke-linejoin:round;stroke-miterlimit:4;stroke-dasharray:2.0008407, 2.0008407;stroke-dashoffset:0;stroke-opacity:1"
           id="path653-3-2"
           inkscape:connector-curvature="0" />
      </g>
      <g
         transform="matrix(0.35294677,0,0,0.3527566,-8.1401513,3.7464731)"
         id="line2d_58-3-9-9"
         style="stroke:#959595;stroke-width:0.99999994;stroke-linecap:butt;stroke-linejoin:round;stroke-miterlimit:4;stroke-dasharray:1.99999991, 1.99999991;stroke-dashoffset:0;stroke-opacity:1">
        <path
           d="m 407.10937,45.090938 h 24"
           style="fill:none;stroke:#959595;stroke-width:0.99999994;stroke-linecap:square;stroke-linejoin:round;stroke-miterlimit:4;stroke-dasharray:1.99999991, 1.99999991;stroke-dashoffset:0;stroke-opacity:1"
           id="path653-3-2-4"
           inkscape:connector-curvature="0" />
      </g>
    </g>
    <g
       id="g977"
       transform="translate(-2.0659126,-5.8467443)">
      <g
         transform="matrix(0.27046116,0,0,-0.35277777,28.496182,58.341571)"
         id="line2d_58-3-8-8-2-5"
         style="stroke:#d9dee2;stroke-width:9.27649689;stroke-linecap:butt;stroke-linejoin:round;stroke-miterlimit:4;stroke-dasharray:none;stroke-opacity:1">
        <path
           d="m 407.10937,45.090938 h 24"
           style="fill:none;stroke:#d9dee2;stroke-width:9.27649689;stroke-linecap:square;stroke-linejoin:round;stroke-miterlimit:4;stroke-dasharray:none;stroke-opacity:1"
           id="path653-3-6-8-2-0"
           inkscape:connector-curvature="0" />
      </g>
      <g
         transform="matrix(0.35294118,0,0,0.35277777,-6.0539781,8.2695945)"
         id="line2d_64-1"
         style="stroke-width:4.25098419;stroke-linecap:butt;stroke-linejoin:round;stroke-miterlimit:4;stroke-dasharray:none">
        <path
           sodipodi:nodetypes="cc"
           d="m 408.45241,96.90642 h 21.19542"
           style="fill:none;stroke:#74a9cf;stroke-width:4.25098419;stroke-linecap:square;stroke-linejoin:round;stroke-miterlimit:4;stroke-dasharray:none"
           id="path709-0"
           inkscape:connector-curvature="0" />
      </g>
    </g>
    <g
       id="g983"
       transform="translate(-2.0659126,-6.5653777)">
      <g
         transform="matrix(0.27046116,0,0,-0.35277777,28.496182,64.232501)"
         id="line2d_58-3-8-8-2-5-5"
         style="stroke:#fef8f0;stroke-width:9.27649689;stroke-linecap:butt;stroke-linejoin:round;stroke-miterlimit:4;stroke-dasharray:none;stroke-opacity:1">
        <path
           d="m 407.10937,45.090938 h 24"
           style="fill:none;stroke:#fef8f0;stroke-width:9.27649689;stroke-linecap:square;stroke-linejoin:round;stroke-miterlimit:4;stroke-dasharray:none;stroke-opacity:1"
           id="path653-3-6-8-2-0-8"
           inkscape:connector-curvature="0" />
      </g>
      <g
         transform="matrix(0.35294118,0,0,0.35277777,-6.0539781,7.5633909)"
         id="line2d_66-6"
         style="stroke-linecap:butt;stroke-linejoin:round">
        <path
           d="m 407.10937,115.54594 h 24"
           style="fill:none;stroke:#fdbf6f;stroke-width:1.5;stroke-linecap:square;stroke-linejoin:round"
           id="path730-2"
           inkscape:connector-curvature="0" />
      </g>
    </g>
    <g
       id="g951"
       transform="translate(-2.0838491,-4.7126565)">
      <path
         inkscape:connector-curvature="0"
         id="path693-4-1"
         style="fill:none;stroke:#045a8d;stroke-width:0.5009284;stroke-linecap:square;stroke-linejoin:round;stroke-miterlimit:4;stroke-dasharray:none"
         d="m 137.61763,36.128114 h 8.49815" />
      <path
         inkscape:connector-curvature="0"
         id="path693-4-1-8"
         style="fill:none;stroke:#045a8d;stroke-width:0.50115025;stroke-linecap:square;stroke-linejoin:round;stroke-miterlimit:4;stroke-dasharray:2.00460105, 2.00460105;stroke-dashoffset:0"
         d="m 137.6175,37.353844 h 8.50567" />
      <path
         inkscape:connector-curvature="0"
         id="path693-4-1-8-1"
         style="fill:none;stroke:#045a8d;stroke-width:0.50115025;stroke-linecap:square;stroke-linejoin:round;stroke-miterlimit:4;stroke-dasharray:2.00460105, 2.00460105;stroke-dashoffset:0"
         d="m 137.6175,34.902387 h 8.50567" />
    </g>
    <g
       id="g989"
       transform="translate(-1.9726836,-6.8791668)">
      <g
         transform="matrix(0.27046116,0,0,-0.35277777,28.402953,69.718584)"
         id="line2d_58-3-8-8-2-5-5-1"
         style="opacity:0.2;fill:none;fill-opacity:1;stroke:#00ffff;stroke-width:9.27649689;stroke-linecap:butt;stroke-linejoin:round;stroke-miterlimit:4;stroke-dasharray:none;stroke-opacity:1">
        <path
           d="m 407.10937,45.090938 h 24"
           style="fill:none;fill-opacity:1;stroke:#00ffff;stroke-width:9.27649689;stroke-linecap:square;stroke-linejoin:round;stroke-miterlimit:4;stroke-dasharray:none;stroke-opacity:1"
           id="path653-3-6-8-2-0-8-7"
           inkscape:connector-curvature="0" />
      </g>
      <g
         transform="matrix(0.35294118,0,0,0.35277777,-6.1471981,13.049456)"
         id="line2d_66-6-2"
         style="fill:none;fill-opacity:1;stroke:#00ffff;stroke-linecap:butt;stroke-linejoin:round;stroke-opacity:1">
        <path
           d="m 407.10937,115.54594 h 24"
           style="fill:none;fill-opacity:1;stroke:#00ffff;stroke-width:1.5;stroke-linecap:square;stroke-linejoin:round;stroke-opacity:1"
           id="path730-2-7"
           inkscape:connector-curvature="0" />
      </g>
    </g>
    <path
       style="fill:none;stroke:#00ffff;stroke-width:0.26499999;stroke-linecap:butt;stroke-linejoin:miter;stroke-miterlimit:4;stroke-dasharray:none;stroke-opacity:1;marker-end:url(#TriangleOutL)"
       d="M 32.895244,48.373552 H 29.548129"
       id="path1204"
       inkscape:connector-curvature="0" />
    <rect
       style="opacity:1;fill:#ffffff;fill-opacity:1;stroke:#959595;stroke-width:0;stroke-linecap:square;stroke-miterlimit:4;stroke-dasharray:none;stroke-dashoffset:0;stroke-opacity:1"
       id="rect931"
       width="13.927035"
       height="42.82238"
       x="34.509296"
       y="83.424995" />
    <rect
       style="opacity:1;fill:#ffffff;fill-opacity:1;stroke:#959595;stroke-width:0;stroke-linecap:square;stroke-miterlimit:4;stroke-dasharray:none;stroke-dashoffset:0;stroke-opacity:1"
       id="rect931-3"
       width="68.20343"
       height="3.7746205"
       x="66.706642"
       y="134.60852" />
    <path
       style="fill:none;stroke:#000000;stroke-width:0.26499999;stroke-linecap:butt;stroke-linejoin:miter;stroke-miterlimit:4;stroke-dasharray:none;stroke-opacity:1;marker-end:url(#TriangleOutL-3)"
       d="M 32.895244,49.643004 H 29.548129"
       id="path1204-7"
       inkscape:connector-curvature="0" />
  </g>
</svg>
